<svg width="587" height="391" viewBox="0 0 587 391" xmlns="http://www.w3.org/2000/svg"><title>mask</title><desc>Created with Sketch.</desc><defs><filter x="-50%" y="-50%" width="200%" height="200%" filterUnits="objectBoundingBox" id="a"><feOffset dy="2" in="SourceAlpha" result="shadowOffsetOuter1"/><feGaussianBlur stdDeviation="6" in="shadowOffsetOuter1" result="shadowBlurOuter1"/><feColorMatrix values="0 0 0 0 0 0 0 0 0 0 0 0 0 0 0 0 0 0 0.7 0" in="shadowBlurOuter1" result="shadowMatrixOuter1"/><feMerge><feMergeNode in="shadowMatrixOuter1"/><feMergeNode in="SourceGraphic"/></feMerge></filter></defs><path d="M73 53l30-2 171-38h47l169 37 33 1 6 79 13 13-2 80-10 23-23 130-4-163-153 23-51 36-55-36-150-23-7 157-19-125-11-19-6-85 16-13 6-75zm416.05 53.884s-22.918-13.073-41-14c-18.08-.927-37 10-37 10l-33 19-44 32s-5 4-1 8 17.542 12.965 34 24c8.95 6 9.052 4 11 6 1.95 2 17-2 17-2l72-27 22-56zm-388.6 2s22.918-13.073 41-14c18.08-.927 37 10 37 10l33 19 44 32s5 4 1 8-17.542 12.965-34 24c-8.95 6-9.052 4-11 6-1.95 2-17-2-17-2l-72-27-22-56z" filter="url(#a)" fill="#EB0000"/></svg>